<svg xmlns="http://www.w3.org/2000/svg" viewBox="0 0 386 386"><path fill="#010101" d="m0 0v386h386v-386h-286v78c0 13.118 2.045 28.21-1 41 7.79 0.116 15.777-11.777 21-17l33-33c5.811-5.8111 11.417-12.75 18-17.682 5.411-4.0545 14.583-2.3179 21-2.3179h51c-6.789 9.6373-16.671 17.671-25 26l-66 66c-2.439 2.444-6.488 5.43-7.248 9-1.154 5.412 7.943 11.695 11.248 15l175 175c6.418 6.418 13.766 12.57 19 20h-48c-6.277 0-15.274 1.622-21-1.318-6.173-3.169-11.157-9.839-16-14.682-12.141-12.141-23.963-27.112-38-37-1.777 6.012-1 12.761-1 19v32h-54v-71c0-10.4 2.313-23.959-0.434-34-2.104-7.692-12.113-14.547-17.566-20l-35-35c-5.768-5.768-11.539-13.521-19-17l-1 1c2.166 11.665 1 24.165 1 36 0 3.694 1.272 10.521-1.6034 13.397-2.8754 2.875-9.7025 1.603-13.397 1.603h-38v-233h-47z"/><path fill="#fefefe" d="m47 0v233h37c3.7313 0 11.302 1.423 14.397-1.028 2.9544-2.34 1.6034-9.656 1.6034-12.972 0-11.895 1.763-25.396-1-37l1-1c7.062 4.974 12.901 11.901 19 18l32 32c6.19 6.19 17.081 13.684 20.258 22 1.28 3.352 0.742 7.482 0.742 11v21 73h54v-31c0-6.659-0.551-13.487 1-20l36 36c5.226 5.226 10.999 13.308 18 16.142 6.18 2.502 15.416 0.858 22 0.858h47c-3.309-7.096-10.516-12.516-16-18l-177-177c-3.107-3.107-12.911-9.957-11.654-15 0.78-3.131 4.484-5.825 6.654-8l68-68c7.453-7.4534 18.516-15.384 23-25h-51c-6.122 0-15.634-1.7845-21 1.6034-6.37 4.0214-11.692 11.089-17 16.397l-34 34c-5.785 5.785-12.826 16.134-21 18 3.44-11.638 1-26.874 1-39v-80h-53m178 94c-10.404 14.769-26.224 27.224-39 40-4.337 4.337-12.787 10.088-14.824 16-1.881 5.462 8.503 12.679 11.824 16l28 28c4.912 4.912 9.642 11.035 16 14v-114h-2m129 98h-50c-6.814 0-16.561-1.77-23 0.603-6.561 2.42-11.801 10.456-17 14.973-4.851 4.214-9.571 8.672-13.906 13.424-1.716 1.881-4.127 4.277-4.262 7-0.18 3.639 3.873 6.698 6.169 8.999 6.826 6.841 14.132 13.181 20.999 20 2.458 2.441 5.996 7.204 10 5.825 6.901-2.377 13.914-12.738 19-17.824 9.61-9.61 18.922-19.711 29-28.83 7.71-6.977 18.544-14.615 23-24.17z"/></svg>