<?xml version="1.0" standalone="no"?><!DOCTYPE svg PUBLIC "-//W3C//DTD SVG 1.1//EN" "http://www.w3.org/Graphics/SVG/1.1/DTD/svg11.dtd"><svg width="100%" height="100%" viewBox="0 0 975 508" version="1.1" xmlns="http://www.w3.org/2000/svg" xmlns:xlink="http://www.w3.org/1999/xlink" xml:space="preserve" style="fill-rule:evenodd;clip-rule:evenodd;stroke-linejoin:round;stroke-miterlimit:1.41421;"><path d="M947.688,507.216l-387.083,0c-14.743,0 -26.695,-11.953 -26.695,-26.695l0,-73.411l-193.544,0l0,80.086l43.38,0c5.527,0 10.01,4.484 10.01,10.01c0,5.53 -4.483,10.013 -10.01,10.013l-126.803,0c-5.527,0 -10.01,-4.483 -10.01,-10.012c0,-5.526 4.482,-10.01 10.01,-10.01l43.38,0l0,-80.087l-273.628,0c-14.743,-0.002 -26.695,-11.955 -26.695,-26.697l0,-353.718c0,-14.743 11.953,-26.695 26.695,-26.695l587.3,0c14.743,0 26.696,11.953 26.696,26.695l0,313.675l106.782,0c0,0 6.05,-80.715 -20.02,-93.438c-35.612,-17.375 -86.76,6.674 -86.76,6.674l0,-13.348c0,0 60.272,-30.62 100.106,0c24.976,19.195 20.022,100.11 20.022,100.11l186.867,0c14.742,0 26.696,11.954 26.696,26.696l0,113.456c0,14.743 -11.953,26.696 -26.695,26.696l-0.001,0ZM560.605,340.37l40.043,0l0,-286.98c0,-7.37 -5.977,-13.348 -13.348,-13.348l-533.91,0c-7.372,0 -13.348,5.977 -13.348,13.348l0,300.327c0,7.37 5.977,13.348 13.348,13.348l480.52,0c0,-14.742 11.952,-26.695 26.695,-26.695ZM313.67,480.52l13.35,0l0,-73.41l-13.35,0l0,73.413l0,-0.003ZM627.344,26.696c0,-7.37 -5.977,-13.348 -13.348,-13.348l-587.3,0c-7.372,0 -13.348,5.977 -13.348,13.348l0,353.718c0,7.37 5.976,13.348 13.348,13.348l507.214,0l0,-20.02l-487.193,0c-7.372,0 -13.348,-5.977 -13.348,-13.35l0,-313.675c0,-7.37 5.975,-13.348 13.347,-13.348l547.256,0c7.37,0 13.35,5.977 13.35,13.348l0,293.653l20.02,0l0,-313.676l0.002,0.002ZM961.037,367.066c0,-7.37 -5.977,-13.348 -13.35,-13.348l-387.08,0c-7.373,0 -13.35,5.977 -13.35,13.348l0,113.454c0,7.372 5.977,13.35 13.35,13.35l387.082,0c7.372,0 13.35,-5.978 13.35,-13.35l0,-113.454l-0.002,0ZM907.647,453.826l26.695,0l0,26.696l-26.695,0l0,-26.694l0,-0.002ZM907.647,413.784l26.695,0l0,26.695l-26.695,0l0,-26.695ZM920.993,400.436l-40.043,0c-7.372,0 -13.35,-5.977 -13.35,-13.35c0,-7.37 5.978,-13.347 13.35,-13.347l40.042,0c7.372,0 13.35,5.977 13.35,13.347c0,7.373 -5.977,13.35 -13.35,13.35l0.001,0ZM814.213,453.826l26.694,0l0,26.696l-26.697,0l0,-26.694l0.003,-0.002ZM814.213,413.784l26.694,0l0,26.695l-26.697,0l0,-26.695l0.003,0ZM814.213,373.74l26.694,0l0,26.695l-26.697,0l0,-26.695l0.003,0ZM613.996,453.826l186.868,0l0,26.695l-186.869,0l0,-26.694l0.001,-0.001ZM774.169,413.783l26.695,0l0,26.695l-26.695,0l0,-26.695ZM774.169,373.739l26.695,0l0,26.695l-26.695,0l0,-26.694l0,-0.001ZM734.126,413.782l26.695,0l0,26.695l-26.695,0l0,-26.695ZM734.126,373.738l26.695,0l0,26.695l-26.695,0l0,-26.693l0,-0.002ZM694.082,413.781l26.696,0l0,26.695l-26.698,0l0,-26.695l0.002,0ZM694.082,373.737l26.696,0l0,26.695l-26.698,0l0,-26.692l0.002,-0.003ZM654.04,413.78l26.695,0l0,26.695l-26.695,0l0,-26.695ZM654.04,373.736l26.695,0l0,26.695l-26.695,0l0,-26.691l0,-0.004ZM613.997,413.779l26.695,0l0,26.695l-26.695,0l0,-26.695ZM613.997,373.735l26.695,0l0,26.695l-26.695,0l0,-26.69l0,-0.005ZM573.954,413.778l26.695,0l0,26.695l-26.695,0l0,-26.695ZM573.954,373.734l26.695,0l0,26.695l-26.695,0l0,-26.689l0,-0.006ZM600.65,480.514l-26.695,0l0,-26.694l26.695,0l0,26.695l0,-0.001ZM894.3,440.472l-26.7,0l0,-26.695l26.695,0l0,26.695l0.005,0ZM894.3,480.515l-26.7,0l0,-26.694l26.695,0l0,26.695l0.005,-0.001ZM500.54,266.952l26.696,0l0,73.413l-26.696,0l0,-73.413l0,0ZM453.824,66.732c37.15,0 66.738,29.59 66.738,66.74l-66.738,0l0,-66.74l0,0ZM447.684,206.884c-37.148,0 -67.272,-30.118 -67.272,-67.274c0,-37.15 29.59,-66.204 66.74,-66.204l0,66.74l66.737,0c-0.04,37.148 -29.055,66.737 -66.204,66.737l-0.001,0.001ZM387.086,340.364l-26.696,0l0,-113.454l26.694,0l0,113.46l0.002,-0.006ZM433.8,340.37l-26.695,0l0,-60.066l26.695,0l0,60.066ZM480.517,340.37l-26.695,0l0,-100.11l26.695,0l0,100.11Z" style="fill:#3a94e0;"/><path d="M311.166,141.625l-238.332,0c-5.983,0 -10.834,-4.851 -10.834,-10.834l0,-59.583c0,-5.983 4.851,-10.834 10.834,-10.834l238.332,0c5.983,0 10.834,4.851 10.834,10.833l0,59.584c0,5.982 -4.851,10.833 -10.834,10.833l0,0.001ZM316.583,71.208c0,-2.992 -2.425,-5.417 -5.417,-5.417l-238.332,0c-2.992,0 -5.417,2.425 -5.417,5.417l0,59.583c0,2.992 2.426,5.417 5.417,5.417l238.332,0c2.992,0 5.417,-2.426 5.417,-5.417l0,-59.583l0,0ZM305.75,130.791l-227.5,0c-2.992,0 -5.416,-2.425 -5.416,-5.416l0,-48.751c0,-2.991 2.425,-5.416 5.416,-5.416l227.5,0c2.991,0 5.416,2.425 5.416,5.416l0,48.751c0,2.991 -2.425,5.416 -5.416,5.416ZM308.459,76.624c0,-1.497 -1.212,-2.708 -2.709,-2.708l-227.5,0c-1.497,0 -2.709,1.211 -2.709,2.708l0,48.751c0,1.496 1.212,2.707 2.709,2.707l227.5,0c1.497,0 2.708,-1.211 2.708,-2.708l0,-48.75l0.001,0ZM281.374,114.541c-7.479,0 -13.541,-6.062 -13.541,-13.542c0,-7.48 6.062,-13.542 13.542,-13.542c7.479,0 13.542,6.062 13.542,13.542c0,7.48 -6.063,13.542 -13.543,13.542l0,0ZM281.374,90.166c-5.815,0 -10.833,5.014 -10.833,10.833c0,5.816 5.018,10.834 10.834,10.834c5.816,0 10.833,-5.018 10.833,-10.834c0,-5.819 -5.018,-10.833 -10.834,-10.833l0,0ZM257,106.416l-46.042,0c-2.991,0 -5.416,-2.426 -5.416,-5.417c0,-2.991 2.425,-5.416 5.416,-5.416l46.042,0c2.992,0 5.416,2.425 5.416,5.416c0,2.991 -2.424,5.417 -5.416,5.417l0,0ZM151.375,79.333l13.541,0l0,43.333l-13.541,0l0,-43.333l0,0ZM121.584,79.333l13.541,0l0,43.333l-13.541,0l0,-43.333l0,0ZM91.792,79.333l13.541,0l0,43.333l-13.541,0l0,-43.333l0,0Z" style="fill:#3a94e0;"/><path d="M311.166,245.625l-238.332,0c-5.983,0 -10.834,-4.851 -10.834,-10.834l0,-59.583c0,-5.983 4.851,-10.834 10.834,-10.834l238.332,0c5.983,0 10.834,4.851 10.834,10.833l0,59.584c0,5.982 -4.851,10.833 -10.834,10.833l0,0.001ZM316.583,175.208c0,-2.992 -2.425,-5.417 -5.417,-5.417l-238.332,0c-2.992,0 -5.417,2.425 -5.417,5.417l0,59.583c0,2.992 2.426,5.417 5.417,5.417l238.332,0c2.992,0 5.417,-2.426 5.417,-5.417l0,-59.583l0,0ZM305.75,234.791l-227.5,0c-2.992,0 -5.416,-2.425 -5.416,-5.416l0,-48.751c0,-2.991 2.425,-5.416 5.416,-5.416l227.5,0c2.991,0 5.416,2.425 5.416,5.416l0,48.751c0,2.991 -2.425,5.416 -5.416,5.416ZM308.459,180.624c0,-1.497 -1.212,-2.708 -2.709,-2.708l-227.5,0c-1.497,0 -2.709,1.211 -2.709,2.708l0,48.751c0,1.496 1.212,2.707 2.709,2.707l227.5,0c1.497,0 2.708,-1.211 2.708,-2.708l0,-48.75l0.001,0ZM281.374,218.541c-7.479,0 -13.541,-6.062 -13.541,-13.542c0,-7.48 6.062,-13.542 13.542,-13.542c7.479,0 13.542,6.062 13.542,13.542c0,7.48 -6.063,13.542 -13.543,13.542l0,0ZM281.374,194.166c-5.815,0 -10.833,5.014 -10.833,10.833c0,5.816 5.018,10.834 10.834,10.834c5.816,0 10.833,-5.018 10.833,-10.834c0,-5.819 -5.018,-10.833 -10.834,-10.833l0,0ZM257,210.416l-46.042,0c-2.991,0 -5.416,-2.426 -5.416,-5.417c0,-2.991 2.425,-5.416 5.416,-5.416l46.042,0c2.992,0 5.416,2.425 5.416,5.416c0,2.991 -2.424,5.417 -5.416,5.417l0,0ZM151.375,183.333l13.541,0l0,43.333l-13.541,0l0,-43.333l0,0ZM121.584,183.333l13.541,0l0,43.333l-13.541,0l0,-43.333l0,0ZM91.792,183.333l13.541,0l0,43.333l-13.541,0l0,-43.333l0,0Z" style="fill:#3a94e0;"/><path d="M311.166,348.625l-238.332,0c-5.983,0 -10.834,-4.851 -10.834,-10.834l0,-59.583c0,-5.983 4.851,-10.834 10.834,-10.834l238.332,0c5.983,0 10.834,4.851 10.834,10.833l0,59.584c0,5.982 -4.851,10.833 -10.834,10.833l0,0.001ZM316.583,278.208c0,-2.992 -2.425,-5.417 -5.417,-5.417l-238.332,0c-2.992,0 -5.417,2.425 -5.417,5.417l0,59.583c0,2.992 2.426,5.417 5.417,5.417l238.332,0c2.992,0 5.417,-2.426 5.417,-5.417l0,-59.583l0,0ZM305.75,337.791l-227.5,0c-2.992,0 -5.416,-2.425 -5.416,-5.416l0,-48.751c0,-2.991 2.425,-5.416 5.416,-5.416l227.5,0c2.991,0 5.416,2.425 5.416,5.416l0,48.751c0,2.991 -2.425,5.416 -5.416,5.416ZM308.459,283.624c0,-1.497 -1.212,-2.708 -2.709,-2.708l-227.5,0c-1.497,0 -2.709,1.211 -2.709,2.708l0,48.751c0,1.496 1.212,2.707 2.709,2.707l227.5,0c1.497,0 2.708,-1.211 2.708,-2.708l0,-48.75l0.001,0ZM281.374,321.541c-7.479,0 -13.541,-6.062 -13.541,-13.542c0,-7.48 6.062,-13.542 13.542,-13.542c7.479,0 13.542,6.062 13.542,13.542c0,7.48 -6.063,13.542 -13.543,13.542l0,0ZM281.374,297.166c-5.815,0 -10.833,5.014 -10.833,10.833c0,5.816 5.018,10.834 10.834,10.834c5.816,0 10.833,-5.018 10.833,-10.834c0,-5.819 -5.018,-10.833 -10.834,-10.833l0,0ZM257,313.416l-46.042,0c-2.991,0 -5.416,-2.426 -5.416,-5.417c0,-2.991 2.425,-5.416 5.416,-5.416l46.042,0c2.992,0 5.416,2.425 5.416,5.416c0,2.991 -2.424,5.417 -5.416,5.417l0,0ZM151.375,286.333l13.541,0l0,43.333l-13.541,0l0,-43.333l0,0ZM121.584,286.333l13.541,0l0,43.333l-13.541,0l0,-43.333l0,0ZM91.792,286.333l13.541,0l0,43.333l-13.541,0l0,-43.333l0,0Z" style="fill:#3a94e0;"/></svg>